<svg xmlns="http://www.w3.org/2000/svg" viewBox="0 0 1200 900" role="img" aria-labelledby="title desc"><title id="title">Sillón de barbería clásico</title><desc id="desc">Sillón premium frente a un espejo iluminado en un ambiente oscuro.</desc>
<defs><linearGradient id="bg" x1="0" y1="0" x2="1" y2="1"><stop stop-color="#060a0f"/><stop offset="1" stop-color="#28170c"/></linearGradient><linearGradient id="chair" x1="0" y1="0" x2="0" y2="1"><stop stop-color="#444a52"/><stop offset=".42" stop-color="#1c2228"/><stop offset="1" stop-color="#080a0c"/></linearGradient><linearGradient id="gold"><stop stop-color="#ffe2a5"/><stop offset=".45" stop-color="#c98837"/><stop offset="1" stop-color="#613511"/></linearGradient><filter id="s"><feDropShadow dx="0" dy="30" stdDeviation="25" flood-opacity=".7"/></filter></defs>
<rect width="1200" height="900" fill="url(#bg)"/><path d="M0 720h1200v180H0z" fill="#101419"/><path d="M0 720h1200" stroke="#d99a49" stroke-opacity=".25" stroke-width="6"/>
<rect x="175" y="80" width="850" height="535" rx="70" fill="#101820" stroke="#dda253" stroke-width="18"/><rect x="215" y="120" width="770" height="455" rx="48" fill="#172631"/><path d="M270 165h660v320" fill="none" stroke="#fff" stroke-opacity=".08" stroke-width="5"/>
<g transform="translate(370 300)"><ellipse cx="230" cy="500" rx="245" ry="55" fill="#030405"/><rect x="185" y="325" width="92" height="190" rx="38" fill="url(#gold)"/><rect x="70" y="38" width="320" height="330" rx="85" fill="url(#chair)" stroke="#626a74" stroke-width="9"/><rect x="28" y="210" width="404" height="104" rx="50" fill="url(#chair)" stroke="#626a74" stroke-width="9"/><rect x="130" y="-100" width="205" height="165" rx="58" fill="url(#chair)" stroke="#626a74" stroke-width="9"/><path d="M72 160h316M100 270h260" stroke="#fff" stroke-opacity=".06" stroke-width="7"/></g>
<g fill="#d5a25b"><rect x="300" y="615" width="55" height="80" rx="13"/><rect x="860" y="610" width="70" height="85" rx="14"/><rect x="255" y="645" width="35" height="50" rx="9"/><rect x="940" y="635" width="38" height="60" rx="9"/></g>
<text x="80" y="820" fill="#f2ce91" font-family="system-ui, sans-serif" font-size="40" font-weight="800" letter-spacing="7">CONFORT · ESTILO · PRECISIÓN</text></svg>
