<svg xmlns="http://www.w3.org/2000/svg" viewBox="0 0 64 64">
  <defs><linearGradient id="g" x1="0" y1="0" x2="1" y2="1"><stop stop-color="#ffd184"/><stop offset="1" stop-color="#e89b38"/></linearGradient></defs>
  <rect width="64" height="64" rx="18" fill="#0b1725"/>
  <rect x="6" y="6" width="52" height="52" rx="14" fill="url(#g)"/>
  <path d="M24 20c4 0 7 3 7 7v3l10-9 3 3-10 9 10 9-3 3-10-9v3c0 4-3 7-7 7s-7-3-7-7 3-7 7-7c1 0 2 0 3 1l1-1-1-1c-1 1-2 1-3 1-4 0-7-3-7-7s3-7 7-7Zm0 4a3 3 0 1 0 0 6 3 3 0 0 0 0-6Zm0 16a3 3 0 1 0 0 6 3 3 0 0 0 0-6Z" fill="#0b1725"/>
</svg>
