<svg xmlns="http://www.w3.org/2000/svg" viewBox="0 0 1200 900" role="img" aria-labelledby="title desc"><title id="title">Herramientas profesionales de barbería</title><desc id="desc">Composición ilustrada con tijeras, navaja, peine y productos de cuidado.</desc>
<defs><linearGradient id="bg" x1="0" y1="0" x2="1" y2="1"><stop stop-color="#081018"/><stop offset="1" stop-color="#1c120c"/></linearGradient><linearGradient id="metal" x1="0" y1="0" x2="1" y2="1"><stop stop-color="#f8f8f4"/><stop offset=".35" stop-color="#8d969f"/><stop offset=".7" stop-color="#f7c36f"/><stop offset="1" stop-color="#5b3618"/></linearGradient><linearGradient id="glass"><stop stop-color="#d9a95f" stop-opacity=".9"/><stop offset="1" stop-color="#4e2a12" stop-opacity=".85"/></linearGradient><filter id="s"><feDropShadow dx="0" dy="26" stdDeviation="22" flood-opacity=".62"/></filter></defs>
<rect width="1200" height="900" fill="url(#bg)"/><circle cx="220" cy="130" r="330" fill="#e2a551" fill-opacity=".09"/><circle cx="1070" cy="760" r="300" fill="#e2a551" fill-opacity=".08"/>
<g transform="translate(180 230) rotate(-18)"><circle cx="120" cy="120" r="82" fill="none" stroke="url(#metal)" stroke-width="25"/><circle cx="120" cy="120" r="24" fill="#0c1218"/><circle cx="330" cy="120" r="82" fill="none" stroke="url(#metal)" stroke-width="25"/><circle cx="330" cy="120" r="24" fill="#0c1218"/><path d="M170 140 540 545M280 142 25 620" stroke="url(#metal)" stroke-width="30" stroke-linecap="round"/><path d="m540 545 120 45-74-101zM25 620-40 735l126-79z" fill="url(#metal)"/></g>
<g transform="translate(660 120) rotate(14)"><rect x="0" y="0" width="360" height="100" rx="28" fill="#1c242c" stroke="#d4a45a" stroke-width="8"/><rect x="245" y="18" width="145" height="64" rx="18" fill="url(#metal)"/><path d="M280 18v64M310 18v64M340 18v64" stroke="#31363a" stroke-width="7"/></g>
<g transform="translate(750 440)"><rect width="180" height="300" rx="35" fill="url(#glass)" stroke="#e8bd78" stroke-width="8"/><rect x="30" y="-68" width="120" height="92" rx="20" fill="#151b21"/><rect x="48" y="90" width="84" height="96" rx="18" fill="#0b1015" fill-opacity=".72"/><path d="M65 125h50M65 150h50" stroke="#e8bd78" stroke-width="7" stroke-linecap="round"/></g>
<g transform="translate(320 650) rotate(-8)"><rect width="390" height="65" rx="20" fill="#c58b42"/><path d="M30 0v65M65 0v65M100 0v65M135 0v65M170 0v65M205 0v65M240 0v65M275 0v65M310 0v65M345 0v65" stroke="#2e1b0c" stroke-width="12"/></g>
<text x="70" y="820" fill="#f2ce91" font-family="system-ui, sans-serif" font-size="38" font-weight="800" letter-spacing="6">HERRAMIENTAS DE PRECISIÓN</text></svg>
