<svg xmlns="http://www.w3.org/2000/svg" viewBox="0 0 1600 1050" role="img" aria-labelledby="title desc">
  <title id="title">Interior moderno de una barbería premium</title>
  <desc id="desc">Ilustración oscura con sillones de barbería, espejos iluminados y estación de trabajo.</desc>
  <defs>
    <linearGradient id="bg" x1="0" y1="0" x2="1" y2="1"><stop stop-color="#070b10"/><stop offset=".55" stop-color="#101820"/><stop offset="1" stop-color="#19130e"/></linearGradient>
    <linearGradient id="wood" x1="0" y1="0" x2="0" y2="1"><stop stop-color="#7d4a27"/><stop offset="1" stop-color="#2b170d"/></linearGradient>
    <linearGradient id="gold" x1="0" y1="0" x2="1" y2="1"><stop stop-color="#ffe0a4"/><stop offset=".35" stop-color="#d89a45"/><stop offset="1" stop-color="#7b4618"/></linearGradient>
    <linearGradient id="leather" x1="0" y1="0" x2="0" y2="1"><stop stop-color="#343941"/><stop offset=".45" stop-color="#171b21"/><stop offset="1" stop-color="#080a0d"/></linearGradient>
    <radialGradient id="glow"><stop stop-color="#f6bd6d" stop-opacity=".45"/><stop offset="1" stop-color="#f6bd6d" stop-opacity="0"/></radialGradient>
    <filter id="shadow" x="-40%" y="-40%" width="180%" height="180%"><feDropShadow dx="0" dy="22" stdDeviation="24" flood-color="#000" flood-opacity=".62"/></filter>
    <filter id="blur"><feGaussianBlur stdDeviation="22"/></filter>
    <pattern id="floor" width="150" height="100" patternUnits="userSpaceOnUse"><path d="M0 100 75 0h75l-75 100z" fill="#15191d"/><path d="M75 100 150 0" stroke="#ffffff" stroke-opacity=".025" stroke-width="3"/></pattern>
  </defs>
  <rect width="1600" height="1050" fill="url(#bg)"/>
  <ellipse cx="1210" cy="170" rx="430" ry="340" fill="url(#glow)" filter="url(#blur)"/>
  <path d="M0 0h1600v145H0z" fill="#05070a"/>
  <path d="M0 705h1600v345H0z" fill="url(#floor)"/>
  <path d="M0 700h1600" stroke="#d49a51" stroke-opacity=".16" stroke-width="5"/>
  <g opacity=".95">
    <path d="M170 145h390v550H170z" fill="#0c1015" stroke="#a56b31" stroke-opacity=".25" stroke-width="4"/>
    <path d="M205 183h320v365H205z" rx="30" fill="#111820" stroke="#e1aa5d" stroke-width="12"/>
    <path d="M222 200h286v331H222z" rx="22" fill="#182633"/>
    <path d="M250 222h230v210" fill="none" stroke="#f5cd8c" stroke-opacity=".18" stroke-width="3"/>
    <rect x="205" y="579" width="320" height="88" rx="14" fill="url(#wood)"/>
    <g fill="#d7a55c"><rect x="236" y="552" width="28" height="42" rx="6"/><rect x="278" y="532" width="24" height="62" rx="6"/><rect x="318" y="548" width="18" height="46" rx="5"/><rect x="426" y="540" width="34" height="54" rx="7"/></g>
  </g>
  <g opacity=".95">
    <path d="M610 145h390v550H610z" fill="#0c1015" stroke="#a56b31" stroke-opacity=".25" stroke-width="4"/>
    <path d="M645 183h320v365H645z" rx="30" fill="#111820" stroke="#e1aa5d" stroke-width="12"/>
    <path d="M662 200h286v331H662z" rx="22" fill="#17242f"/>
    <path d="M690 222h230v210" fill="none" stroke="#f5cd8c" stroke-opacity=".18" stroke-width="3"/>
    <rect x="645" y="579" width="320" height="88" rx="14" fill="url(#wood)"/>
    <g fill="#d7a55c"><rect x="680" y="548" width="25" height="46" rx="6"/><rect x="720" y="528" width="30" height="66" rx="6"/><rect x="770" y="542" width="20" height="52" rx="5"/><rect x="875" y="536" width="40" height="58" rx="7"/></g>
  </g>
  <g opacity=".98">
    <path d="M1050 145h390v550h-390z" fill="#0c1015" stroke="#a56b31" stroke-opacity=".25" stroke-width="4"/>
    <path d="M1085 183h320v365h-320z" rx="30" fill="#111820" stroke="#e1aa5d" stroke-width="12"/>
    <path d="M1102 200h286v331h-286z" rx="22" fill="#17242f"/>
    <path d="M1130 222h230v210" fill="none" stroke="#f5cd8c" stroke-opacity=".18" stroke-width="3"/>
    <rect x="1085" y="579" width="320" height="88" rx="14" fill="url(#wood)"/>
    <g fill="#d7a55c"><rect x="1120" y="546" width="24" height="48" rx="6"/><rect x="1160" y="522" width="31" height="72" rx="6"/><rect x="1210" y="540" width="20" height="54" rx="5"/><rect x="1320" y="534" width="38" height="60" rx="7"/></g>
  </g>
  <g>
    <g transform="translate(258 645)"><ellipse cx="110" cy="270" rx="130" ry="34" fill="#050608"/><rect x="78" y="130" width="65" height="150" rx="25" fill="url(#gold)"/><path d="M18 60Q18 0 78 0h65q60 0 60 60v145H18z" fill="url(#leather)" stroke="#5b626b" stroke-width="5"/><rect x="-5" y="95" width="230" height="62" rx="30" fill="url(#leather)" stroke="#59606a" stroke-width="5"/><rect x="50" y="-80" width="122" height="100" rx="35" fill="url(#leather)" stroke="#59606a" stroke-width="5"/></g>
    <g transform="translate(700 640)"><ellipse cx="110" cy="275" rx="134" ry="36" fill="#050608"/><rect x="76" y="135" width="68" height="150" rx="25" fill="url(#gold)"/><path d="M15 62Q15 0 77 0h68q62 0 62 62v146H15z" fill="url(#leather)" stroke="#606873" stroke-width="5"/><rect x="-8" y="98" width="237" height="64" rx="31" fill="url(#leather)" stroke="#606873" stroke-width="5"/><rect x="48" y="-84" width="126" height="105" rx="36" fill="url(#leather)" stroke="#606873" stroke-width="5"/></g>
    <g transform="translate(1140 650)"><ellipse cx="110" cy="270" rx="130" ry="34" fill="#050608"/><rect x="78" y="130" width="65" height="150" rx="25" fill="url(#gold)"/><path d="M18 60Q18 0 78 0h65q60 0 60 60v145H18z" fill="url(#leather)" stroke="#5b626b" stroke-width="5"/><rect x="-5" y="95" width="230" height="62" rx="30" fill="url(#leather)" stroke="#59606a" stroke-width="5"/><rect x="50" y="-80" width="122" height="100" rx="35" fill="url(#leather)" stroke="#59606a" stroke-width="5"/></g>
  </g>
  <g fill="#f7d08d"><circle cx="365" cy="95" r="25"/><circle cx="805" cy="95" r="25"/><circle cx="1245" cy="95" r="25"/></g>
  <g stroke="#d8a759" stroke-width="8" stroke-linecap="round"><path d="M365 0v72"/><path d="M805 0v72"/><path d="M1245 0v72"/></g>
  <g opacity=".22" fill="#fff"><path d="M240 210h12v270h-12z"/><path d="M680 210h12v270h-12z"/><path d="M1120 210h12v270h-12z"/></g>
  <rect x="0" y="0" width="1600" height="1050" fill="none" stroke="#f1bd70" stroke-opacity=".14" stroke-width="6"/>
</svg>
